<?xml version="1.0" encoding="UTF-8" standalone="no"?>
<svg width="48px" height="48px" viewBox="0 0 48 48" version="1.1" xmlns="http://www.w3.org/2000/svg" xmlns:xlink="http://www.w3.org/1999/xlink">
    <!-- Generator: Sketch 44 (41411) - http://www.bohemiancoding.com/sketch -->
    <title>Facebook-color</title>
    <desc>Created with Sketch.</desc>
    <defs></defs>
    <g id="Page-1" stroke="none" stroke-width="1" fill="none" fill-rule="evenodd">
        <g id="Letter" transform="translate(-104.000000, -324.000000)" fill="#4460A0">
            <path d="M129.638355,372 L106.649232,372 C105.185673,372 104,370.813592 104,369.350603 L104,326.649211 C104,325.18585 105.185859,324 106.649232,324 L149.350955,324 C150.813955,324 152,325.18585 152,326.649211 L152,369.350603 C152,370.813778 150.813769,372 149.350955,372 L137.119305,372 L137.119305,353.411755 L143.358521,353.411755 L144.292755,346.167586 L137.119305,346.167586 L137.119305,341.542641 C137.119305,339.445287 137.701712,338.01601 140.70929,338.01601 L144.545311,338.014333 L144.545311,331.535091 C143.881886,331.446808 141.604784,331.24957 138.955552,331.24957 C133.424834,331.24957 129.638355,334.625526 129.638355,340.825209 L129.638355,346.167586 L123.383122,346.167586 L123.383122,353.411755 L129.638355,353.411755 L129.638355,372 L129.638355,372 Z" id="Facebook"></path>
        </g>
    </g>
</svg>