<?xml version="1.0" encoding="UTF-8" standalone="no"?>
<svg width="48px" height="48px" viewBox="0 0 48 48" version="1.1" xmlns="http://www.w3.org/2000/svg" xmlns:xlink="http://www.w3.org/1999/xlink">
    <!-- Generator: Sketch 44 (41411) - http://www.bohemiancoding.com/sketch -->
    <title>Whatsapp-color</title>
    <desc>Created with Sketch.</desc>
    <defs></defs>
    <g id="Page-1" stroke="none" stroke-width="1" fill="none" fill-rule="evenodd">
        <g id="Letter" transform="translate(-282.000000, -372.000000)" fill="#67C15E">
            <path d="M305.993033,372 L305.993033,372.000398 L306.006967,372.000398 C319.237748,372.000398 330,382.765685 330,396.000199 C330,409.234315 319.237748,420 306.006967,420 C301.126434,420 296.598605,418.546975 292.804449,416.035539 L283.579605,418.983798 L286.570026,410.066947 C283.692661,406.116025 282,401.248451 282,395.999801 C282,382.765287 292.762252,372 305.993033,372 Z M299.29285,384.190836 C298.827488,383.07628 298.474784,383.034071 297.769774,383.005401 C297.529728,382.991464 297.262214,382.977527 296.96564,382.977527 C296.04845,382.977527 295.089462,383.245514 294.511043,383.838033 C293.806033,384.557577 292.056843,386.23638 292.056843,389.679202 C292.056843,393.122023 294.567571,396.451756 294.905944,396.917648 C295.258648,397.382743 299.800808,404.55031 306.853297,407.471492 C312.368379,409.757149 314.00491,409.545307 315.260074,409.27732 C317.093658,408.882308 319.393002,407.527239 319.971421,405.891043 C320.54984,404.25405 320.54984,402.857171 320.380255,402.560912 C320.211068,402.264652 319.745308,402.095816 319.040298,401.742615 C318.335288,401.389811 314.90737,399.696673 314.25849,399.470894 C313.623543,399.231179 313.017259,399.315995 312.537963,399.99333 C311.860819,400.938653 311.198006,401.89831 310.661785,402.476494 C310.238619,402.928051 309.547144,402.984595 308.969123,402.744481 C308.193254,402.420348 306.021298,401.657798 303.340985,399.273388 C301.267356,397.42535 299.856938,395.125756 299.448104,394.434484 C299.038871,393.729275 299.405907,393.319529 299.729948,392.938852 C300.082653,392.501232 300.421026,392.191036 300.77373,391.781688 C301.126434,391.372738 301.323884,391.160897 301.549599,390.681068 C301.789645,390.215575 301.62006,389.735746 301.450874,389.382942 C301.281687,389.030139 299.871269,385.587317 299.29285,384.190836 Z" id="Whatsapp"></path>
        </g>
    </g>
</svg>